<?xml version="1.0" encoding="UTF-8"?>
<svg xmlns="http://www.w3.org/2000/svg" xmlns:xlink="http://www.w3.org/1999/xlink" width="225px" height="56px" viewBox="0 0 224 56" version="1.1">
<g id="surface1">
<path style=" stroke:none;fill-rule:nonzero;fill:rgb(9.803922%,21.176471%,33.333333%);fill-opacity:1;" d="M 17.730469 35.382812 L 20.484375 35.382812 L 11.769531 56 L 8.824219 56 L 0.0703125 35.382812 L 2.859375 35.382812 L 10.402344 53.234375 Z M 27.414062 40.875 C 31.714844 40.875 33.863281 42.996094 33.863281 47.246094 C 33.863281 47.863281 33.808594 48.515625 33.714844 49.207031 L 23.148438 49.207031 C 23.148438 52.300781 24.949219 53.851562 28.550781 53.851562 C 30.257812 53.851562 31.777344 53.65625 33.105469 53.277344 L 33.105469 55.429688 C 31.777344 55.808594 30.160156 56 28.257812 56 C 23.074219 56 20.484375 53.417969 20.484375 48.257812 C 20.484375 43.332031 22.792969 40.875 27.414062 40.875 Z M 23.148438 46.96875 L 31.296875 46.96875 C 31.242188 44.328125 29.949219 43.003906 27.414062 43.003906 C 24.738281 43.003906 23.320312 44.328125 23.148438 46.96875 Z M 37.433594 51.929688 L 37.433594 38.402344 L 39.09375 38.402344 L 39.65625 40.875 L 43.753906 40.875 L 43.753906 43.023438 L 40.078125 43.023438 L 40.078125 51.714844 C 40.078125 53.140625 40.6875 53.851562 41.902344 53.851562 L 43.753906 53.851562 L 43.753906 56 L 41.210938 56 C 38.691406 56 37.433594 54.644531 37.433594 51.929688 Z M 53.332031 40.875 C 57.617188 40.875 59.757812 42.996094 59.757812 47.246094 C 59.757812 47.863281 59.714844 48.515625 59.632812 49.207031 L 49.070312 49.207031 C 49.070312 52.300781 50.867188 53.851562 54.464844 53.851562 C 56.171875 53.851562 57.691406 53.65625 59.019531 53.277344 L 59.019531 55.429688 C 57.691406 55.808594 56.074219 56 54.171875 56 C 48.988281 56 46.402344 53.417969 46.402344 48.257812 C 46.402344 43.332031 48.710938 40.875 53.332031 40.875 Z M 49.070312 46.96875 L 57.214844 46.96875 C 57.15625 44.328125 55.867188 43.003906 53.332031 43.003906 C 50.652344 43.003906 49.234375 44.328125 49.070312 46.96875 Z M 65.992188 56 L 63.347656 56 L 63.347656 40.875 L 65.132812 40.875 L 65.613281 42.789062 C 66.933594 41.515625 68.523438 40.875 70.382812 40.875 L 70.382812 43.089844 C 68.574219 43.089844 67.113281 43.730469 65.992188 45.007812 Z M 73.324219 40.875 L 75.96875 40.875 L 75.96875 56 L 73.324219 56 Z M 73.324219 35.382812 L 75.96875 35.382812 L 75.96875 37.898438 L 73.324219 37.898438 Z M 83.214844 56 L 80.570312 56 L 80.570312 40.875 L 82.355469 40.875 L 82.835938 42.789062 C 84.378906 41.515625 86.074219 40.875 87.921875 40.875 C 91.6875 40.875 93.570312 42.753906 93.570312 46.503906 L 93.570312 56 L 90.902344 56 L 90.902344 46.464844 C 90.902344 44.214844 89.789062 43.089844 87.5625 43.089844 C 86.039062 43.089844 84.585938 43.730469 83.214844 45.007812 Z M 97.164062 51.445312 C 97.164062 48.332031 99.199219 46.78125 103.269531 46.78125 C 104.574219 46.78125 105.886719 46.875 107.203125 47.074219 L 107.203125 45.640625 C 107.203125 43.894531 105.847656 43.023438 103.148438 43.023438 C 101.597656 43.023438 100.007812 43.265625 98.378906 43.738281 L 98.378906 41.589844 C 100.007812 41.109375 101.597656 40.875 103.148438 40.875 C 107.628906 40.875 109.867188 42.433594 109.867188 45.558594 L 109.867188 56 L 108.355469 56 L 107.453125 54.5 C 105.9375 55.5 104.300781 56 102.539062 56 C 98.953125 56 97.164062 54.480469 97.164062 51.445312 Z M 103.269531 48.929688 C 100.960938 48.929688 99.808594 49.753906 99.808594 51.402344 C 99.808594 53.035156 100.714844 53.851562 102.539062 53.851562 C 104.371094 53.851562 105.929688 53.355469 107.203125 52.371094 L 107.203125 49.230469 C 105.886719 49.03125 104.574219 48.929688 103.269531 48.929688 Z M 116.816406 56 L 114.171875 56 L 114.171875 40.875 L 115.957031 40.875 L 116.445312 42.789062 C 117.757812 41.515625 119.347656 40.875 121.207031 40.875 L 121.207031 43.089844 C 119.40625 43.089844 117.9375 43.730469 116.816406 45.007812 Z M 124.148438 40.875 L 126.796875 40.875 L 126.796875 56 L 124.148438 56 Z M 124.148438 35.382812 L 126.796875 35.382812 L 126.796875 37.898438 L 124.148438 37.898438 Z M 130.679688 51.445312 C 130.679688 48.332031 132.71875 46.78125 136.792969 46.78125 C 138.109375 46.78125 139.417969 46.875 140.71875 47.074219 L 140.71875 45.640625 C 140.71875 43.894531 139.371094 43.023438 136.664062 43.023438 C 135.113281 43.023438 133.523438 43.265625 131.902344 43.738281 L 131.902344 41.589844 C 133.523438 41.109375 135.113281 40.875 136.664062 40.875 C 141.148438 40.875 143.386719 42.433594 143.386719 45.558594 L 143.386719 56 L 141.894531 56 L 140.972656 54.5 C 139.472656 55.5 137.832031 56 136.058594 56 C 132.472656 56 130.679688 54.480469 130.679688 51.445312 Z M 136.792969 48.929688 C 134.484375 48.929688 133.324219 49.753906 133.324219 51.402344 C 133.324219 53.035156 134.238281 53.851562 136.058594 53.851562 C 137.890625 53.851562 139.445312 53.355469 140.71875 52.371094 L 140.71875 49.230469 C 139.417969 49.03125 138.109375 48.929688 136.792969 48.929688 Z M 153.429688 35.382812 L 169.007812 35.382812 L 169.007812 37.539062 L 162.542969 37.539062 L 162.542969 56 L 159.894531 56 L 159.894531 37.539062 L 153.429688 37.539062 Z M 169.007812 51.445312 C 169.007812 48.332031 171.046875 46.78125 175.121094 46.78125 C 176.441406 46.78125 177.746094 46.875 179.050781 47.074219 L 179.050781 45.640625 C 179.050781 43.894531 177.699219 43.023438 174.996094 43.023438 C 173.441406 43.023438 171.851562 43.265625 170.230469 43.738281 L 170.230469 41.589844 C 171.851562 41.109375 173.441406 40.875 174.996094 40.875 C 179.476562 40.875 181.71875 42.433594 181.71875 45.558594 L 181.71875 56 L 180.222656 56 L 179.300781 54.5 C 177.800781 55.5 176.164062 56 174.386719 56 C 170.800781 56 169.007812 54.480469 169.007812 51.445312 Z M 175.121094 48.929688 C 172.8125 48.929688 171.65625 49.753906 171.65625 51.402344 C 171.65625 53.035156 172.566406 53.851562 174.386719 53.851562 C 176.234375 53.851562 177.789062 53.355469 179.050781 52.371094 L 179.050781 49.230469 C 177.746094 49.03125 176.441406 48.929688 175.121094 48.929688 Z M 188.667969 56 L 186.023438 56 L 186.023438 40.875 L 187.804688 40.875 L 188.269531 42.773438 C 189.710938 41.503906 191.289062 40.875 192.996094 40.875 C 195.164062 40.875 196.652344 41.5625 197.445312 42.9375 C 199.082031 41.5625 200.742188 40.875 202.421875 40.875 C 205.898438 40.875 207.632812 42.785156 207.632812 46.609375 L 207.632812 56 L 204.964844 56 L 204.964844 46.488281 C 204.964844 44.21875 204.019531 43.089844 202.128906 43.089844 C 200.714844 43.089844 199.394531 43.738281 198.160156 45.050781 L 198.160156 56 L 195.492188 56 L 195.492188 46.523438 C 195.492188 44.234375 194.554688 43.089844 192.679688 43.089844 C 191.199219 43.089844 189.859375 43.738281 188.667969 45.050781 Z M 211.226562 51.445312 C 211.226562 48.332031 213.261719 46.78125 217.335938 46.78125 C 218.652344 46.78125 219.960938 46.875 221.261719 47.074219 L 221.261719 45.640625 C 221.261719 43.894531 219.914062 43.023438 217.207031 43.023438 C 215.65625 43.023438 214.066406 43.265625 212.445312 43.738281 L 212.445312 41.589844 C 214.066406 41.109375 215.65625 40.875 217.207031 40.875 C 221.691406 40.875 223.929688 42.433594 223.929688 45.558594 L 223.929688 56 L 222.441406 56 L 221.515625 54.5 C 220.019531 55.5 218.382812 56 216.601562 56 C 213.015625 56 211.226562 54.480469 211.226562 51.445312 Z M 217.335938 48.929688 C 215.027344 48.929688 213.875 49.753906 213.875 51.402344 C 213.875 53.035156 214.78125 53.851562 216.601562 53.851562 C 218.433594 53.851562 219.988281 53.355469 221.261719 52.371094 L 221.261719 49.230469 C 219.960938 49.03125 218.652344 48.929688 217.335938 48.929688 Z M 217.335938 48.929688 "/>
<path style=" stroke:none;fill-rule:nonzero;fill:rgb(31.764706%,64.313725%,98.431373%);fill-opacity:1;" d="M 104.242188 8.871094 C 103.6875 6.070312 101.765625 3.707031 99.46875 3.707031 C 97.171875 3.707031 95.671875 6.753906 95.671875 9.609375 C 95.671875 12.464844 98.148438 14.652344 100.449219 14.652344 C 102.75 14.652344 104.855469 11.945312 104.242188 8.871094 Z M 108.519531 11.246094 C 110.734375 11.867188 113.488281 9.828125 113.722656 6.703125 C 113.929688 3.859375 112.714844 1.054688 110.5 0.4375 C 108.28125 -0.179688 106.03125 2.351562 105.265625 5.101562 C 104.507812 7.855469 106.308594 10.628906 108.519531 11.246094 Z M 122.570312 12.382812 C 123.914062 9.871094 123.933594 6.820312 122.160156 5.347656 C 120.390625 3.878906 117.304688 5.269531 115.488281 7.476562 C 113.679688 9.671875 114.207031 12.949219 115.980469 14.417969 C 117.75 15.890625 121.089844 15.148438 122.570312 12.382812 Z M 128.492188 16.144531 C 127.574219 14.257812 124.488281 14.246094 122.175781 15.382812 C 119.855469 16.519531 119.058594 19.425781 119.976562 21.316406 C 120.894531 23.199219 123.941406 23.847656 126.191406 22.121094 C 128.25 20.546875 129.402344 18.027344 128.492188 16.144531 Z M 110.367188 13.050781 C 104.867188 12.707031 98 16.902344 98 22.035156 C 98 27.164062 103.875 31.175781 109.386719 31.261719 C 117.894531 31.382812 119.761719 26.890625 118.820312 21.847656 C 117.835938 16.621094 114.285156 13.300781 110.367188 13.050781 Z M 110.367188 13.050781 "/>
</g>
</svg>
