<?xml version="1.0" encoding="UTF-8"?>
<svg xmlns="http://www.w3.org/2000/svg" xmlns:xlink="http://www.w3.org/1999/xlink" width="300px" height="75px" viewBox="0 0 164 41" version="1.1">
<g id="surface1">
<path style=" stroke:none;fill-rule:nonzero;fill:rgb(9.803922%,21.176471%,33.333333%);fill-opacity:1;" d="M 12.980469 25.90625 L 14.996094 25.90625 L 8.617188 41 L 6.460938 41 L 0.0507812 25.90625 L 2.09375 25.90625 L 7.617188 38.976562 Z M 20.070312 29.925781 C 23.21875 29.925781 24.792969 31.480469 24.792969 34.589844 C 24.792969 35.042969 24.753906 35.519531 24.683594 36.027344 L 16.949219 36.027344 C 16.949219 38.292969 18.265625 39.425781 20.902344 39.425781 C 22.152344 39.425781 23.265625 39.285156 24.238281 39.007812 L 24.238281 40.582031 C 23.265625 40.859375 22.082031 41 20.6875 41 C 16.894531 41 14.996094 39.109375 14.996094 35.332031 C 14.996094 31.726562 16.6875 29.925781 20.070312 29.925781 Z M 16.949219 34.386719 L 22.914062 34.386719 C 22.875 32.453125 21.925781 31.484375 20.070312 31.484375 C 18.113281 31.484375 17.074219 32.453125 16.949219 34.386719 Z M 27.40625 38.019531 L 27.40625 28.117188 L 28.621094 28.117188 L 29.035156 29.925781 L 32.035156 29.925781 L 32.035156 31.5 L 29.34375 31.5 L 29.34375 37.863281 C 29.34375 38.90625 29.789062 39.425781 30.679688 39.425781 L 32.035156 39.425781 L 32.035156 41 L 30.171875 41 C 28.328125 41 27.40625 40.007812 27.40625 38.019531 Z M 39.046875 29.925781 C 42.183594 29.925781 43.75 31.480469 43.75 34.589844 C 43.75 35.042969 43.71875 35.519531 43.660156 36.027344 L 35.925781 36.027344 C 35.925781 38.292969 37.242188 39.425781 39.875 39.425781 C 41.125 39.425781 42.238281 39.285156 43.210938 39.007812 L 43.210938 40.582031 C 42.238281 40.859375 41.054688 41 39.660156 41 C 35.867188 41 33.972656 39.109375 33.972656 35.332031 C 33.972656 31.726562 35.664062 29.925781 39.046875 29.925781 Z M 35.925781 34.386719 L 41.890625 34.386719 C 41.847656 32.453125 40.902344 31.484375 39.046875 31.484375 C 37.085938 31.484375 36.046875 32.453125 35.925781 34.386719 Z M 48.316406 41 L 46.378906 41 L 46.378906 29.925781 L 47.6875 29.925781 L 48.039062 31.328125 C 49.003906 30.394531 50.167969 29.925781 51.53125 29.925781 L 51.53125 31.546875 C 50.207031 31.546875 49.136719 32.015625 48.316406 32.953125 Z M 53.683594 29.925781 L 55.621094 29.925781 L 55.621094 41 L 53.683594 41 Z M 53.683594 25.90625 L 55.621094 25.90625 L 55.621094 27.746094 L 53.683594 27.746094 Z M 60.925781 41 L 58.988281 41 L 58.988281 29.925781 L 60.296875 29.925781 L 60.648438 31.328125 C 61.777344 30.394531 63.019531 29.925781 64.371094 29.925781 C 67.128906 29.925781 68.507812 31.300781 68.507812 34.046875 L 68.507812 41 L 66.554688 41 L 66.554688 34.019531 C 66.554688 32.371094 65.738281 31.546875 64.109375 31.546875 C 62.992188 31.546875 61.929688 32.015625 60.925781 32.953125 Z M 71.136719 37.664062 C 71.136719 35.386719 72.628906 34.25 75.609375 34.25 C 76.5625 34.25 77.523438 34.320312 78.488281 34.464844 L 78.488281 33.414062 C 78.488281 32.136719 77.496094 31.5 75.519531 31.5 C 74.382812 31.5 73.21875 31.675781 72.027344 32.023438 L 72.027344 30.449219 C 73.21875 30.097656 74.382812 29.925781 75.519531 29.925781 C 78.800781 29.925781 80.4375 31.066406 80.4375 33.355469 L 80.4375 41 L 79.332031 41 L 78.671875 39.902344 C 77.5625 40.632812 76.363281 41 75.074219 41 C 72.449219 41 71.136719 39.886719 71.136719 37.664062 Z M 75.609375 35.824219 C 73.917969 35.824219 73.074219 36.425781 73.074219 37.632812 C 73.074219 38.828125 73.738281 39.425781 75.074219 39.425781 C 76.414062 39.425781 77.554688 39.0625 78.488281 38.34375 L 78.488281 36.042969 C 77.523438 35.898438 76.5625 35.824219 75.609375 35.824219 Z M 85.527344 41 L 83.589844 41 L 83.589844 29.925781 L 84.898438 29.925781 L 85.253906 31.328125 C 86.214844 30.394531 87.378906 29.925781 88.742188 29.925781 L 88.742188 31.546875 C 87.421875 31.546875 86.347656 32.015625 85.527344 32.953125 Z M 90.894531 29.925781 L 92.832031 29.925781 L 92.832031 41 L 90.894531 41 Z M 90.894531 25.90625 L 92.832031 25.90625 L 92.832031 27.746094 L 90.894531 27.746094 Z M 95.675781 37.664062 C 95.675781 35.386719 97.167969 34.25 100.152344 34.25 C 101.117188 34.25 102.074219 34.320312 103.027344 34.464844 L 103.027344 33.414062 C 103.027344 32.136719 102.039062 31.5 100.058594 31.5 C 98.921875 31.5 97.757812 31.675781 96.570312 32.023438 L 96.570312 30.449219 C 97.757812 30.097656 98.921875 29.925781 100.058594 29.925781 C 103.339844 29.925781 104.980469 31.066406 104.980469 33.355469 L 104.980469 41 L 103.886719 41 L 103.210938 39.902344 C 102.113281 40.632812 100.914062 41 99.613281 41 C 96.988281 41 95.675781 39.886719 95.675781 37.664062 Z M 100.152344 35.824219 C 98.460938 35.824219 97.613281 36.425781 97.613281 37.632812 C 97.613281 38.828125 98.28125 39.425781 99.613281 39.425781 C 100.957031 39.425781 102.09375 39.0625 103.027344 38.34375 L 103.027344 36.042969 C 102.074219 35.898438 101.117188 35.824219 100.152344 35.824219 Z M 112.332031 25.90625 L 123.738281 25.90625 L 123.738281 27.484375 L 119.003906 27.484375 L 119.003906 41 L 117.066406 41 L 117.066406 27.484375 L 112.332031 27.484375 Z M 123.738281 37.664062 C 123.738281 35.386719 125.230469 34.25 128.214844 34.25 C 129.179688 34.25 130.136719 34.320312 131.089844 34.464844 L 131.089844 33.414062 C 131.089844 32.136719 130.101562 31.5 128.121094 31.5 C 126.984375 31.5 125.820312 31.675781 124.632812 32.023438 L 124.632812 30.449219 C 125.820312 30.097656 126.984375 29.925781 128.121094 29.925781 C 131.402344 29.925781 133.042969 31.066406 133.042969 33.355469 L 133.042969 41 L 131.949219 41 L 131.273438 39.902344 C 130.175781 40.632812 128.976562 41 127.675781 41 C 125.050781 41 123.738281 39.886719 123.738281 37.664062 Z M 128.214844 35.824219 C 126.523438 35.824219 125.675781 36.425781 125.675781 37.632812 C 125.675781 38.828125 126.34375 39.425781 127.675781 39.425781 C 129.027344 39.425781 130.167969 39.0625 131.089844 38.34375 L 131.089844 36.042969 C 130.136719 35.898438 129.179688 35.824219 128.214844 35.824219 Z M 138.132812 41 L 136.195312 41 L 136.195312 29.925781 L 137.5 29.925781 L 137.839844 31.316406 C 138.894531 30.386719 140.050781 29.925781 141.300781 29.925781 C 142.886719 29.925781 143.976562 30.429688 144.558594 31.4375 C 145.757812 30.429688 146.972656 29.925781 148.203125 29.925781 C 150.746094 29.925781 152.015625 31.324219 152.015625 34.125 L 152.015625 41 L 150.0625 41 L 150.0625 34.035156 C 150.0625 32.375 149.371094 31.546875 147.988281 31.546875 C 146.953125 31.546875 145.984375 32.023438 145.082031 32.984375 L 145.082031 41 L 143.128906 41 L 143.128906 34.0625 C 143.128906 32.386719 142.441406 31.546875 141.070312 31.546875 C 139.984375 31.546875 139.003906 32.023438 138.132812 32.984375 Z M 154.648438 37.664062 C 154.648438 35.386719 156.136719 34.25 159.121094 34.25 C 160.085938 34.25 161.042969 34.320312 161.996094 34.464844 L 161.996094 33.414062 C 161.996094 32.136719 161.007812 31.5 159.027344 31.5 C 157.890625 31.5 156.726562 31.675781 155.539062 32.023438 L 155.539062 30.449219 C 156.726562 30.097656 157.890625 29.925781 159.027344 29.925781 C 162.308594 29.925781 163.949219 31.066406 163.949219 33.355469 L 163.949219 41 L 162.859375 41 L 162.179688 39.902344 C 161.085938 40.632812 159.886719 41 158.582031 41 C 155.957031 41 154.648438 39.886719 154.648438 37.664062 Z M 159.121094 35.824219 C 157.429688 35.824219 156.585938 36.425781 156.585938 37.632812 C 156.585938 38.828125 157.25 39.425781 158.582031 39.425781 C 159.925781 39.425781 161.0625 39.0625 161.996094 38.34375 L 161.996094 36.042969 C 161.042969 35.898438 160.085938 35.824219 159.121094 35.824219 Z M 159.121094 35.824219 "/>
<path style=" stroke:none;fill-rule:nonzero;fill:rgb(31.764706%,64.313725%,98.431373%);fill-opacity:1;" d="M 76.320312 6.496094 C 75.914062 4.445312 74.507812 2.714844 72.824219 2.714844 C 71.144531 2.714844 70.046875 4.945312 70.046875 7.035156 C 70.046875 9.125 71.859375 10.726562 73.542969 10.726562 C 75.226562 10.726562 76.769531 8.746094 76.320312 6.496094 Z M 79.453125 8.234375 C 81.074219 8.6875 83.089844 7.195312 83.261719 4.90625 C 83.414062 2.824219 82.523438 0.773438 80.902344 0.320312 C 79.277344 -0.132812 77.628906 1.722656 77.070312 3.734375 C 76.515625 5.75 77.832031 7.78125 79.453125 8.234375 Z M 89.738281 9.066406 C 90.722656 7.226562 90.738281 4.992188 89.4375 3.914062 C 88.144531 2.839844 85.882812 3.859375 84.554688 5.472656 C 83.230469 7.082031 83.617188 9.480469 84.914062 10.554688 C 86.210938 11.632812 88.65625 11.089844 89.738281 9.066406 Z M 94.074219 11.820312 C 93.402344 10.4375 91.144531 10.429688 89.449219 11.261719 C 87.75 12.09375 87.167969 14.222656 87.839844 15.605469 C 88.511719 16.984375 90.742188 17.460938 92.390625 16.195312 C 93.898438 15.042969 94.742188 13.199219 94.074219 11.820312 Z M 80.804688 9.554688 C 76.777344 9.304688 71.75 12.375 71.75 16.132812 C 71.75 19.886719 76.050781 22.824219 80.085938 22.886719 C 86.316406 22.976562 87.683594 19.6875 86.992188 15.996094 C 86.273438 12.167969 83.671875 9.738281 80.804688 9.554688 Z M 80.804688 9.554688 "/>
</g>
</svg>
